<?xml version="1.0" encoding="UTF-8"?>
<svg width="20px" height="20px" viewBox="0 0 20 20" version="1.1" xmlns="http://www.w3.org/2000/svg" xmlns:xlink="http://www.w3.org/1999/xlink">
    <!-- Generator: Sketch 51.2 (57519) - http://www.bohemiancoding.com/sketch -->
    <title>Artboard</title>
    <desc>Created with Sketch.</desc>
    <defs></defs>
    <g id="Artboard" stroke="none" stroke-width="1" fill="none" fill-rule="evenodd">
        <path d="M10.3403928,2.25317857 L1.18321428,11.4103928 C0.405214286,12.1883928 0,13.2256072 0,14.263 C0,15.3003928 0.389,16.3376072 1.18321428,17.1317857 C1.96121428,17.9097857 2.99839286,18.2987857 4.03578572,18.2987857 C5.07321428,18.2987857 6.10878572,17.9113928 6.90460714,17.1156072 L16.0456072,7.95839286 C17.0016072,7.00039286 17.0016072,5.47860714 16.0616072,4.53839286 C15.1216072,3.59839286 13.5722142,3.59017857 12.6256072,4.53839286 L5.04060714,12.1397857 L6.19139286,13.2906072 L13.7763928,5.68939286 C14.0843928,5.38139286 14.6192142,5.38139286 14.911,5.67317857 C15.219,5.98117857 15.219,6.516 14.911,6.824 L5.76978572,15.981 C4.83621428,16.9161786 3.22521428,16.9047857 2.31760714,15.9971786 C1.37760714,15.0571786 1.40021428,13.477 2.33378572,12.545 L11.491,3.404 C13.0403928,1.85778572 15.6726072,1.83178572 17.2122143,3.37160714 C18.7682142,4.92760714 18.7583928,7.57739286 17.2122143,9.12517858 L8.07139286,18.2823928 L9.18978575,19.4007857 L18.347,10.2436072 C19.449,9.14139283 20,7.699 20,6.25639286 C20,4.79778572 19.449,3.35517857 18.3467857,2.25317857 C17.2446072,1.15117857 15.786,0.6 14.3273928,0.6 C12.885,0.6 11.4423928,1.151 10.3403928,2.25317857 Z" id="Imported-Layers-Copy-38" fill="#206E9F" fill-rule="nonzero"></path>
    </g>
</svg>