<?xml version="1.0" encoding="UTF-8" standalone="no"?>
<svg width="92px" height="92px" viewBox="0 0 92 92" version="1.1" xmlns="http://www.w3.org/2000/svg" xmlns:xlink="http://www.w3.org/1999/xlink">
    <!-- Generator: Sketch 41.2 (35397) - http://www.bohemiancoding.com/sketch -->
    <title>Direct Deposit icon</title>
    <defs>
        <polygon id="path-1" points="0 76 72.273 76 72.273 0.382 0 0.382"></polygon>
    </defs>
    <g id="Symbols" stroke="none" stroke-width="1" fill="none" fill-rule="evenodd">
        <g id="Direct-Deposit">
            <g id="Page-1" transform="translate(10.000000, 6.000000)">
                <polygon id="Fill-1" fill="#00FF00" points="53.226 55.0454 55.673 55.0454 55.673 32.3334 53.226 32.3334"></polygon>
                <g id="Group-89" transform="translate(0.120000, 0.618400)">
                    <path d="M60.8919,70.901 L64.0449,70.901 L64.0449,67.624 C64.0449,66.604 63.2179,65.776 62.1969,65.776 L59.9679,65.776 C59.9679,65.776 60.8919,65.892 60.8919,67.013 L60.8919,70.901 Z" id="Fill-2" fill="#FFFFFF"></path>
                    <path d="M56.8142,55.6198 L57.7142,55.6198 C58.5742,55.6198 59.2722,56.3178 59.2722,57.1778 L59.2722,60.7968 L57.5442,60.7968 L57.5442,56.3988 C57.5442,56.3988 57.4732,55.6198 56.8142,55.6198" id="Fill-4" fill="#FFFFFF"></path>
                    <path d="M41.3588,2.9864 L18.5018,2.9864 C16.1088,2.9864 14.1688,4.9264 14.1688,7.3194 C14.1688,9.7134 16.1088,11.6534 18.5018,11.6534 L21.6268,11.6534 C22.2708,11.6534 22.7938,12.1754 22.7938,12.8194 C22.7938,13.4644 22.2708,13.9864 21.6268,13.9864 L6.5518,13.9864 C4.1588,13.9864 2.2188,15.9264 2.2188,18.3194 C2.2188,20.7134 4.1588,22.6534 6.5518,22.6534 L36.9088,22.6534 C39.3018,22.6534 41.2428,20.7134 41.2428,18.3194 C41.2428,15.9264 39.3018,13.9864 36.9088,13.9864 L34.5228,13.9864 C33.8778,13.9864 33.3558,13.4644 33.3558,12.8194 C33.3558,12.1754 33.8778,11.6534 34.5228,11.6534 L41.3588,11.6534 C43.7518,11.6534 45.6918,9.7134 45.6918,7.3194 C45.6918,4.9264 43.7518,2.9864 41.3588,2.9864" id="Fill-6" fill="#F2F3F3"></path>
                    <path d="M68.3559,64.4652 C68.3559,65.1292 46.4079,66.1932 28.6889,66.1932 C10.9699,66.1932 4.1889,65.1292 4.1889,64.4652 C4.1889,63.8012 18.4179,63.2622 36.1369,63.2622 C53.8559,63.2622 68.3559,63.8012 68.3559,64.4652" id="Fill-8" fill="#D9EEFF"></path>
                    <mask id="mask-2" fill="white">
                        <use xlink:href="#path-1"></use>
                    </mask>
                    <g id="Clip-11"></g>
                    <polygon id="Fill-10" fill="#450000" mask="url(#mask-2)" points="16.266 51.737 22.516 51.737 22.516 26.147 16.266 26.147"></polygon>
                    <path d="M22.5156,52.2365 L16.2656,52.2365 C15.9896,52.2365 15.7656,52.0125 15.7656,51.7365 L15.7656,26.1465 C15.7656,25.8705 15.9896,25.6465 16.2656,25.6465 L22.5156,25.6465 C22.7916,25.6465 23.0156,25.8705 23.0156,26.1465 L23.0156,48.0565 C23.0156,48.3335 22.7916,48.5565 22.5156,48.5565 C22.2396,48.5565 22.0156,48.3335 22.0156,48.0565 L22.0156,26.6465 L16.7656,26.6465 L16.7656,51.2365 L22.5156,51.2365 C22.7916,51.2365 23.0156,51.4605 23.0156,51.7365 C23.0156,52.0125 22.7916,52.2365 22.5156,52.2365" id="Fill-12" fill="#0089FF" mask="url(#mask-2)"></path>
                    <polygon id="Fill-13" fill="#FFFFFF" mask="url(#mask-2)" points="19.391 50.298 21.838 50.298 21.838 27.586 19.391 27.586"></polygon>
                    <polygon id="Fill-14" fill="#450000" mask="url(#mask-2)" points="27.625 51.737 33.875 51.737 33.875 26.147 27.625 26.147"></polygon>
                    <path d="M33.875,52.2365 L27.625,52.2365 C27.349,52.2365 27.125,52.0125 27.125,51.7365 L27.125,26.1465 C27.125,25.8705 27.349,25.6465 27.625,25.6465 L33.875,25.6465 C34.151,25.6465 34.375,25.8705 34.375,26.1465 L34.375,48.0565 C34.375,48.3335 34.151,48.5565 33.875,48.5565 C33.599,48.5565 33.375,48.3335 33.375,48.0565 L33.375,26.6465 L28.125,26.6465 L28.125,51.2365 L33.875,51.2365 C34.151,51.2365 34.375,51.4605 34.375,51.7365 C34.375,52.0125 34.151,52.2365 33.875,52.2365" id="Fill-15" fill="#0089FF" mask="url(#mask-2)"></path>
                    <polygon id="Fill-16" fill="#CBE8FF" mask="url(#mask-2)" points="38.985 50.99 45.235 50.99 45.235 26.892 38.985 26.892"></polygon>
                    <path d="M39.484,50.49 L44.734,50.49 L44.734,27.392 L39.484,27.392 L39.484,50.49 Z M45.234,51.49 L38.984,51.49 C38.708,51.49 38.484,51.267 38.484,50.99 L38.484,26.893 C38.484,26.616 38.708,26.393 38.984,26.393 L45.234,26.393 C45.511,26.393 45.734,26.616 45.734,26.893 L45.734,50.99 C45.734,51.267 45.511,51.49 45.234,51.49 L45.234,51.49 Z" id="Fill-17" fill="#0089FF" mask="url(#mask-2)"></path>
                    <path d="M17.9395,48.4904 C17.8015,48.4904 17.6895,48.3784 17.6895,48.2404 L17.6895,28.9284 C17.6895,28.7904 17.8015,28.6784 17.9395,28.6784 C18.0775,28.6784 18.1895,28.7904 18.1895,28.9284 L18.1895,48.2404 C18.1895,48.3784 18.0775,48.4904 17.9395,48.4904" id="Fill-18" fill="#A2D1F4" mask="url(#mask-2)"></path>
                    <path d="M20.6143,37.8166 C20.4763,37.8166 20.3643,37.7046 20.3643,37.5666 L20.3643,29.0666 C20.3643,28.9286 20.4763,28.8166 20.6143,28.8166 C20.7523,28.8166 20.8643,28.9286 20.8643,29.0666 L20.8643,37.5666 C20.8643,37.7046 20.7523,37.8166 20.6143,37.8166" id="Fill-19" fill="#A2D1F4" mask="url(#mask-2)"></path>
                    <polygon id="Fill-20" fill="#FFFFFF" mask="url(#mask-2)" points="30.879 50.298 33.326 50.298 33.326 27.586 30.879 27.586"></polygon>
                    <path d="M29.4277,48.4904 C29.2897,48.4904 29.1777,48.3784 29.1777,48.2404 L29.1777,28.9284 C29.1777,28.7904 29.2897,28.6784 29.4277,28.6784 C29.5657,28.6784 29.6777,28.7904 29.6777,28.9284 L29.6777,48.2404 C29.6777,48.3784 29.5657,48.4904 29.4277,48.4904" id="Fill-21" fill="#A2D1F4" mask="url(#mask-2)"></path>
                    <path d="M32.1025,37.8166 C31.9645,37.8166 31.8525,37.7046 31.8525,37.5666 L31.8525,29.0666 C31.8525,28.9286 31.9645,28.8166 32.1025,28.8166 C32.2405,28.8166 32.3525,28.9286 32.3525,29.0666 L32.3525,37.5666 C32.3525,37.7046 32.2405,37.8166 32.1025,37.8166" id="Fill-22" fill="#A2D1F4" mask="url(#mask-2)"></path>
                    <polygon id="Fill-23" fill="#CBE8FF" mask="url(#mask-2)" points="38.985 51.737 45.235 51.737 45.235 26.147 38.985 26.147"></polygon>
                    <path d="M45.2344,52.2365 L38.9844,52.2365 C38.7084,52.2365 38.4844,52.0125 38.4844,51.7365 L38.4844,26.1465 C38.4844,25.8705 38.7084,25.6465 38.9844,25.6465 L45.2344,25.6465 C45.5104,25.6465 45.7344,25.8705 45.7344,26.1465 L45.7344,48.0565 C45.7344,48.3335 45.5104,48.5565 45.2344,48.5565 C44.9584,48.5565 44.7344,48.3335 44.7344,48.0565 L44.7344,26.6465 L39.4844,26.6465 L39.4844,51.2365 L45.2344,51.2365 C45.5104,51.2365 45.7344,51.4605 45.7344,51.7365 C45.7344,52.0125 45.5104,52.2365 45.2344,52.2365" id="Fill-24" fill="#0089FF" mask="url(#mask-2)"></path>
                    <polygon id="Fill-25" fill="#FFFFFF" mask="url(#mask-2)" points="42.239 50.298 44.686 50.298 44.686 27.586 42.239 27.586"></polygon>
                    <path d="M40.7871,48.4904 C40.6491,48.4904 40.5371,48.3784 40.5371,48.2404 L40.5371,28.9284 C40.5371,28.7904 40.6491,28.6784 40.7871,28.6784 C40.9251,28.6784 41.0371,28.7904 41.0371,28.9284 L41.0371,48.2404 C41.0371,48.3784 40.9251,48.4904 40.7871,48.4904" id="Fill-26" fill="#A2D1F4" mask="url(#mask-2)"></path>
                    <path d="M43.4619,37.8166 C43.3239,37.8166 43.2119,37.7046 43.2119,37.5666 L43.2119,29.0666 C43.2119,28.9286 43.3239,28.8166 43.4619,28.8166 C43.5999,28.8166 43.7119,28.9286 43.7119,29.0666 L43.7119,37.5666 C43.7119,37.7046 43.5999,37.8166 43.4619,37.8166" id="Fill-27" fill="#A2D1F4" mask="url(#mask-2)"></path>
                    <path d="M13.0303,24.2932 C12.9633,24.2932 12.8953,24.2662 12.8463,24.2132 C12.7533,24.1112 12.7593,23.9532 12.8603,23.8592 C13.2603,23.4902 13.4483,22.8822 13.4503,22.8762 C13.4773,22.7862 13.5523,22.7192 13.6443,22.7022 L32.0573,19.3692 C32.2023,19.3392 32.3243,19.4362 32.3483,19.5702 C32.3733,19.7072 32.2833,19.8372 32.1473,19.8612 L13.8773,23.1682 C13.7853,23.4082 13.5673,23.8872 13.2003,24.2272 C13.1513,24.2722 13.0913,24.2932 13.0303,24.2932 M25.5223,25.6982 L15.3323,25.6982 C15.1943,25.6982 15.0823,25.5862 15.0823,25.4482 C15.0823,25.3112 15.1943,25.1982 15.3323,25.1982 L25.5223,25.1982 C25.6603,25.1982 25.7723,25.3112 25.7723,25.4482 C25.7723,25.5862 25.6603,25.6982 25.5223,25.6982" id="Fill-42" fill="#A2D1F4" mask="url(#mask-2)"></path>
                    <path d="M47.666,25.6984 L42.772,25.6984 C42.635,25.6984 42.522,25.5864 42.522,25.4484 C42.522,25.3104 42.635,25.1984 42.772,25.1984 L47.666,25.1984 C47.804,25.1984 47.916,25.3104 47.916,25.4484 C47.916,25.5864 47.804,25.6984 47.666,25.6984 M60.812,25.6984 L52.666,25.6984 C52.528,25.6984 52.416,25.5864 52.416,25.4484 C52.416,25.3104 52.528,25.1984 52.666,25.1984 L60.562,25.1984 L60.562,24.5914 C59.76,24.4304 59.339,23.5294 59.2,23.1684 L50.848,21.6574 C50.712,21.6334 50.622,21.5034 50.646,21.3664 C50.67,21.2304 50.79,21.1364 50.937,21.1654 L59.433,22.7024 C59.524,22.7194 59.6,22.7864 59.627,22.8754 C59.631,22.8874 60.017,24.1154 60.812,24.1154 C60.949,24.1154 61.062,24.2274 61.062,24.3654 L61.062,25.4484 C61.062,25.5864 60.949,25.6984 60.812,25.6984" id="Fill-43" fill="#A2D1F4" mask="url(#mask-2)"></path>
                    <polygon id="Fill-44" fill="#FFFFFF" mask="url(#mask-2)" points="54.199 50.298 56.646 50.298 56.646 27.586 54.199 27.586"></polygon>
                    <path d="M55.3701,37.8166 C55.2321,37.8166 55.1201,37.7046 55.1201,37.5666 L55.1201,29.0666 C55.1201,28.9286 55.2321,28.8166 55.3701,28.8166 C55.5081,28.8166 55.6201,28.9286 55.6201,29.0666 L55.6201,37.5666 C55.6201,37.7046 55.5081,37.8166 55.3701,37.8166" id="Fill-45" fill="#A2D1F4" mask="url(#mask-2)"></path>
                    <path d="M68.9163,67.9356 C68.9163,73.9776 63.9543,75.4476 56.5373,75.4476 C49.1203,75.4476 42.0563,75.5006 42.0563,67.9356 C42.0563,60.3706 48.0693,54.2386 55.4863,54.2386 C62.9033,54.2386 68.9163,60.3706 68.9163,67.9356" id="Fill-46" fill="#FFE876" mask="url(#mask-2)"></path>
                    <path d="M56.5379,76 L56.2319,76 C48.9909,76 41.5039,76 41.5039,67.935 C41.5039,64.765 42.5029,61.764 44.3929,59.26 C44.5779,59.015 44.9239,58.969 45.1669,59.151 C45.4109,59.335 45.4589,59.682 45.2759,59.924 C43.5309,62.237 42.6089,65.007 42.6089,67.935 C42.6089,74.427 47.7559,74.895 56.2319,74.895 L56.5379,74.895 C64.9379,74.895 68.3639,72.878 68.3639,67.935 C68.3639,60.687 62.5869,54.79 55.4859,54.79 C53.2909,54.791 51.1269,55.364 49.2239,56.447 C48.9589,56.595 48.6209,56.505 48.4709,56.24 C48.3199,55.975 48.4129,55.637 48.6779,55.486 C50.7459,54.309 53.0999,53.687 55.4859,53.685 C63.1969,53.685 69.4689,60.078 69.4689,67.935 C69.4689,75.042 62.9319,76 56.5379,76" id="Fill-47" fill="#FFDC00" mask="url(#mask-2)"></path>
                    <path d="M68.1519,65.1967 C68.5479,67.7217 67.7779,70.1757 64.8829,71.5787 C62.9899,72.4957 60.7309,72.4167 58.6029,72.2387 C57.9739,72.1857 57.2899,72.1037 56.8499,71.6857 C55.5879,70.4897 57.1689,68.1667 57.1689,66.7587 C57.1689,59.7427 49.0999,55.0187 55.9789,55.0187 C58.9319,55.0187 61.8269,56.1067 64.0709,58.0647 C65.9829,59.7317 67.7299,62.5047 68.1519,65.1967" id="Fill-48" fill="#FFF9D1" mask="url(#mask-2)"></path>
                    <path d="M50.121,49.6263 C50.121,48.4773 50.02,47.0043 51.484,46.7313 C51.648,46.7013 51.827,46.6973 51.97,46.7853 C52.114,46.8733 52.195,47.0363 52.298,47.1713 C52.77,47.7873 53.682,50.8963 54.411,47.4763 C54.574,46.7123 55.685,46.6083 56.36,46.2363 C57.034,45.8643 57.926,45.7063 58.531,46.1863 C58.931,46.5043 59.11,47.0243 59.399,47.4503 C59.688,47.8763 60.232,48.2343 60.683,47.9963 C60.534,48.0753 60.765,50.2933 60.719,50.6123 C60.6,51.4473 60.298,52.1953 59.8,52.8813 C58.795,54.2663 57.175,55.0993 55.486,55.0993 C52.523,55.0993 50.121,52.6493 50.121,49.6263" id="Fill-49" fill="#FFE876" mask="url(#mask-2)"></path>
                    <path d="M51.6725,47.25 C50.8855,47.405 50.6725,47.854 50.6725,49.196 L50.6735,49.626 C50.6735,52.339 52.8325,54.546 55.4855,54.546 C57.0025,54.546 58.4485,53.803 59.3535,52.557 C59.7965,51.946 60.0645,51.285 60.1725,50.534 C60.1745,50.29 60.1545,49.972 60.1345,49.628 C60.1125,49.275 60.0915,48.897 60.0835,48.592 C59.5895,48.483 59.1805,48.112 58.9425,47.761 C58.8375,47.607 58.7465,47.444 58.6565,47.281 C58.5095,47.016 58.3705,46.764 58.1865,46.619 C57.8485,46.35 57.2055,46.402 56.6255,46.72 C56.4015,46.843 56.1355,46.942 55.8655,47.041 C55.4405,47.195 55.0025,47.355 54.9515,47.592 C54.7405,48.588 54.4165,49.608 53.6215,49.608 C52.9275,49.608 52.5305,48.81 52.1475,48.04 C52.0375,47.818 51.9425,47.616 51.8595,47.507 L51.7635,47.371 C51.7345,47.33 51.6905,47.266 51.6725,47.25 M55.4855,55.651 C52.2225,55.651 49.5685,52.948 49.5685,49.626 L49.5675,49.196 C49.5675,48.329 49.5675,46.528 51.3825,46.188 C51.6985,46.128 52.0175,46.167 52.2595,46.314 C52.4645,46.44 52.5855,46.618 52.6735,46.747 C52.8665,47.005 52.9925,47.256 53.1365,47.548 C53.2405,47.756 53.4255,48.13 53.5805,48.355 C53.6545,48.189 53.7595,47.889 53.8705,47.362 C54.0485,46.526 54.8475,46.236 55.4875,46.003 C55.7015,45.925 55.9155,45.85 56.0935,45.752 C57.0725,45.213 58.1815,45.203 58.8745,45.753 C59.2315,46.037 59.4395,46.414 59.6235,46.747 C59.6975,46.881 59.7715,47.016 59.8555,47.141 C60.0165,47.377 60.2465,47.52 60.3735,47.52 C60.6425,47.379 61.0025,47.477 61.1455,47.746 C61.2185,47.886 61.2325,48.041 61.1925,48.178 C61.1855,48.227 61.1855,48.301 61.1855,48.392 C61.1855,48.701 61.2125,49.15 61.2375,49.562 C61.2595,49.934 61.2795,50.276 61.2795,50.475 C61.2795,50.57 61.2725,50.643 61.2665,50.69 C61.1325,51.623 60.7995,52.447 60.2465,53.206 C59.1365,54.737 57.3555,55.651 55.4855,55.651" id="Fill-50" fill="#FFDC00" mask="url(#mask-2)"></path>
                    <path d="M55.9562,49.0161 C55.9532,48.9961 55.9512,48.9771 55.9482,48.9571 C55.8542,48.2761 56.8152,46.4351 57.7752,46.7601 C58.1812,46.8981 58.2942,47.3661 58.5332,47.6991 C58.8162,48.0941 59.3062,48.3151 59.6662,48.6521 C60.1212,49.0811 60.3472,49.6881 60.3672,50.2881 C60.3912,50.9921 60.2242,51.8981 59.6212,52.3691 C59.4252,52.5231 59.2292,52.6761 59.0332,52.8301 C58.7872,53.0221 58.4922,53.2261 58.1912,53.1481 C58.2642,52.6351 58.3372,52.1221 58.4112,51.6091 C57.9612,51.7651 57.7652,52.2801 57.5392,52.7021 C57.3122,53.1251 56.8482,53.5481 56.4162,53.3471 C56.0722,53.1871 55.9932,52.7361 55.9592,52.3541 C55.8572,51.2101 56.1082,50.1611 55.9562,49.0161" id="Fill-51" fill="#FFF9D1" mask="url(#mask-2)"></path>
                    <path d="M57.7713,55.4734 C54.0693,55.4734 51.7293,54.2094 51.5813,54.1274 C51.3143,53.9794 51.2193,53.6444 51.3663,53.3764 C51.5143,53.1114 51.8483,53.0154 52.1173,53.1614 C52.1703,53.1904 57.4103,55.9894 64.5773,52.8914 C64.8543,52.7694 65.1813,52.8994 65.3033,53.1794 C65.4243,53.4604 65.2953,53.7844 65.0153,53.9054 C62.2773,55.0884 59.8173,55.4734 57.7713,55.4734" id="Fill-52" fill="#D1AE19" mask="url(#mask-2)"></path>
                    <path d="M66.8956,57.7502 C66.8486,57.7502 66.7986,57.7442 66.7496,57.7312 C66.4556,57.6502 66.2826,57.3462 66.3626,57.0522 C66.4236,56.8302 66.3936,56.6672 66.2626,56.5082 C65.3536,55.4042 60.9426,55.2962 58.3676,55.4922 C51.8466,55.4712 51.1546,54.8382 51.0006,54.1902 C50.8846,53.7072 51.2506,53.3292 51.5996,53.1522 C51.8706,53.0152 52.2036,53.1222 52.3416,53.3942 C52.4346,53.5752 52.4166,53.7832 52.3146,53.9432 C52.8696,54.1172 54.3606,54.3752 58.3286,54.3882 C59.0246,54.3342 65.5486,53.9032 67.1156,55.8042 C67.4766,56.2432 67.5836,56.7752 67.4286,57.3432 C67.3616,57.5892 67.1386,57.7502 66.8956,57.7502" id="Fill-53" fill="#D1AE19" mask="url(#mask-2)"></path>
                    <path d="M55.4436,61.4708 C55.4396,62.1868 55.7456,62.7938 56.3696,63.2758 C56.9996,63.7638 57.7686,63.9608 58.6546,63.8648 C59.5206,63.7708 60.2026,63.4298 60.7006,62.8588 C61.1786,62.3108 61.3596,61.7068 61.2616,61.0468 C61.1656,60.4048 60.8306,59.8868 60.2576,59.4798 C59.6906,59.0778 59.0396,58.8928 58.2886,58.9238 C57.5076,58.9558 56.8486,59.2058 56.3056,59.6868 C55.7406,60.1878 55.4476,60.7808 55.4436,61.4708 M53.9306,61.5808 C53.9656,60.8148 54.2796,60.1068 54.8526,59.4608 L53.4076,58.3558 L54.4636,57.6018 L55.8736,58.6028 C56.5856,58.1958 57.3646,57.9858 58.2176,57.9618 C59.0316,57.9388 59.7716,58.0978 60.4536,58.4378 L61.5406,57.4428 L62.4906,58.0688 L61.4736,59.1378 C62.0296,59.7018 62.3696,60.3058 62.4886,60.9578 C62.6256,61.7088 62.5096,62.4288 62.1236,63.1178 L63.6886,64.2808 L62.9116,65.3468 L61.2376,64.1538 C60.5606,64.7308 59.7316,65.0898 58.7546,65.2138 C57.6956,65.3478 56.7386,65.1948 55.9086,64.7508 L54.1476,66.5158 L52.9656,65.5688 L54.7526,63.8458 C54.1636,63.1528 53.8936,62.3928 53.9306,61.5808" id="Fill-54" fill="#D1AE19" mask="url(#mask-2)"></path>
                    <polygon id="Fill-55" fill="#FCC876" mask="url(#mask-2)" points="26.96 67.131 39.428 67.131 39.428 65.561 26.96 65.561"></polygon>
                    <path d="M27.183,66.907 L39.204,66.907 L39.204,65.784 L27.183,65.784 L27.183,66.907 Z M39.428,67.355 L26.96,67.355 C26.836,67.355 26.736,67.255 26.736,67.131 L26.736,65.561 C26.736,65.437 26.836,65.337 26.96,65.337 L39.428,65.337 C39.552,65.337 39.652,65.437 39.652,65.561 L39.652,67.131 C39.652,67.255 39.552,67.355 39.428,67.355 L39.428,67.355 Z" id="Fill-56" fill="#FFDC00" mask="url(#mask-2)"></path>
                    <polygon id="Fill-57" fill="#FFE876" mask="url(#mask-2)" points="26.558 70.271 39.026 70.271 39.026 68.701 26.558 68.701"></polygon>
                    <path d="M26.781,70.047 L38.802,70.047 L38.802,68.924 L26.781,68.924 L26.781,70.047 Z M39.026,70.495 L26.557,70.495 C26.433,70.495 26.333,70.395 26.333,70.271 L26.333,68.701 C26.333,68.577 26.433,68.477 26.557,68.477 L39.026,68.477 C39.15,68.477 39.25,68.577 39.25,68.701 L39.25,70.271 C39.25,70.395 39.15,70.495 39.026,70.495 L39.026,70.495 Z" id="Fill-58" fill="#FFDC00" mask="url(#mask-2)"></path>
                    <polygon id="Fill-59" fill="#FFE876" mask="url(#mask-2)" points="27.106 71.841 39.574 71.841 39.574 70.271 27.106 70.271"></polygon>
                    <path d="M27.33,71.617 L39.35,71.617 L39.35,70.494 L27.33,70.494 L27.33,71.617 Z M39.573,72.065 L27.106,72.065 C26.982,72.065 26.882,71.965 26.882,71.841 L26.882,70.271 C26.882,70.147 26.982,70.047 27.106,70.047 L39.573,70.047 C39.697,70.047 39.797,70.147 39.797,70.271 L39.797,71.841 C39.797,71.965 39.697,72.065 39.573,72.065 L39.573,72.065 Z" id="Fill-60" fill="#FFDC00" mask="url(#mask-2)"></path>
                    <polygon id="Fill-61" fill="#FFF9D1" mask="url(#mask-2)" points="35.602 66.901 37.098 66.901 37.098 65.79 35.602 65.79"></polygon>
                    <polygon id="Fill-62" fill="#FFF9D1" mask="url(#mask-2)" points="37.284 66.901 37.438 66.901 37.438 65.79 37.284 65.79"></polygon>
                    <polygon id="Fill-63" fill="#FFE876" mask="url(#mask-2)" points="26.857 68.701 39.325 68.701 39.325 67.131 26.857 67.131"></polygon>
                    <path d="M27.08,68.477 L39.101,68.477 L39.101,67.354 L27.08,67.354 L27.08,68.477 Z M39.325,68.925 L26.856,68.925 C26.732,68.925 26.632,68.825 26.632,68.701 L26.632,67.131 C26.632,67.007 26.732,66.907 26.856,66.907 L39.325,66.907 C39.448,66.907 39.548,67.007 39.548,67.131 L39.548,68.701 C39.548,68.825 39.448,68.925 39.325,68.925 L39.325,68.925 Z" id="Fill-64" fill="#FFDC00" mask="url(#mask-2)"></path>
                    <polygon id="Fill-65" fill="#450000" mask="url(#mask-2)" points="35.34 68.497 36.836 68.497 36.836 67.386 35.34 67.386"></polygon>
                    <polygon id="Fill-66" fill="#FFF9D1" mask="url(#mask-2)" points="37.021 68.497 37.175 68.497 37.175 67.386 37.021 67.386"></polygon>
                    <polygon id="Fill-67" fill="#FFCCD1" mask="url(#mask-2)" points="35.602 70.041 37.098 70.041 37.098 68.93 35.602 68.93"></polygon>
                    <polygon id="Fill-68" fill="#450000" mask="url(#mask-2)" points="37.283 70.041 37.437 70.041 37.437 68.93 37.283 68.93"></polygon>
                    <polygon id="Fill-69" fill="#450000" mask="url(#mask-2)" points="36.104 71.612 37.6 71.612 37.6 70.501 36.104 70.501"></polygon>
                    <polygon id="Fill-70" fill="#FFF9D1" mask="url(#mask-2)" points="37.785 71.612 37.939 71.612 37.939 70.501 37.785 70.501"></polygon>
                    <path d="M10.6599,18.7878 C10.5669,18.8468 10.4539,18.8768 10.3359,18.8638 L5.9269,18.3758 C5.6529,18.3448 5.4549,18.0978 5.4849,17.8238 C5.5149,17.5478 5.7649,17.3508 6.0369,17.3818 L10.4459,17.8688 C10.7199,17.8998 10.9179,18.1468 10.8879,18.4208 C10.8709,18.5778 10.7829,18.7098 10.6599,18.7878" id="Fill-71" fill="#7960FF" mask="url(#mask-2)"></path>
                    <path d="M8.2803,20.7954 C8.1913,20.8524 8.0843,20.8804 7.9723,20.8724 C7.6973,20.8514 7.4913,20.6104 7.5123,20.3354 L7.8643,15.8314 C7.8863,15.5544 8.1293,15.3504 8.4013,15.3714 C8.6763,15.3934 8.8823,15.6334 8.8613,15.9094 L8.5103,20.4124 C8.4973,20.5764 8.4083,20.7144 8.2803,20.7954" id="Fill-72" fill="#7960FF" mask="url(#mask-2)"></path>
                    <path d="M50.7274,3.9245 L52.9054,5.1825 L54.1634,3.0045 L51.9854,1.7465 L50.7274,3.9245 Z M53.2724,6.5475 L49.3624,4.2915 L51.6184,0.3815 L55.5284,2.6375 L53.2724,6.5475 Z" id="Fill-73" fill="#FFD800" mask="url(#mask-2)"></path>
                    <path d="M50.7276,3.9255 L52.9056,5.1825 L54.1636,3.0035 L51.9856,1.7465 L50.7276,3.9255 Z M53.2706,6.5475 L49.3626,4.2905 L51.6186,0.3815 L55.5286,2.6385 L53.2706,6.5475 Z" id="Fill-74" fill="#FFD800" mask="url(#mask-2)"></path>
                    <path d="M63.2761,35.453 C62.4531,35.453 61.7841,36.09 61.7841,36.872 C61.7841,37.655 62.4531,38.292 63.2761,38.292 C64.0991,38.292 64.7681,37.655 64.7681,36.872 C64.7681,36.09 64.0991,35.453 63.2761,35.453 M63.2761,39.292 C61.9021,39.292 60.7841,38.206 60.7841,36.872 C60.7841,35.538 61.9021,34.453 63.2761,34.453 C64.6501,34.453 65.7681,35.538 65.7681,36.872 C65.7681,38.206 64.6501,39.292 63.2761,39.292" id="Fill-75" fill="#00F2FE" mask="url(#mask-2)"></path>
                    <path d="M63.2764,35.4523 C62.4534,35.4523 61.7844,36.0893 61.7844,36.8723 C61.7844,37.6553 62.4534,38.2923 63.2764,38.2923 C64.0994,38.2923 64.7684,37.6553 64.7684,36.8723 C64.7684,36.0893 64.0994,35.4523 63.2764,35.4523 M63.2764,39.2923 C61.9024,39.2923 60.7844,38.2063 60.7844,36.8723 C60.7844,35.5383 61.9024,34.4523 63.2764,34.4523 C64.6504,34.4523 65.7684,35.5383 65.7684,36.8723 C65.7684,38.2063 64.6504,39.2923 63.2764,39.2923" id="Fill-76" fill="#00F2FE" mask="url(#mask-2)"></path>
                    <path d="M42.9095,75.0758 C46.4685,75.0758 49.3635,72.1808 49.3635,68.6228 C49.3635,65.0658 46.4685,62.1708 42.9095,62.1708 C39.3515,62.1708 36.4565,65.0658 36.4565,68.6228 C36.4565,72.1808 39.3515,75.0758 42.9095,75.0758" id="Fill-77" fill="#D1AE19" mask="url(#mask-2)"></path>
                    <path d="M41.8766,74.7308 C45.4356,74.7308 48.3306,71.8358 48.3306,68.2778 C48.3306,64.7208 45.4356,61.8258 41.8766,61.8258 C38.3186,61.8258 35.4236,64.7208 35.4236,68.2778 C35.4236,71.8358 38.3186,74.7308 41.8766,74.7308" id="Fill-78" fill="#FFF9D1" mask="url(#mask-2)"></path>
                    <path d="M41.8772,61.516 C38.1422,61.516 35.1142,64.544 35.1142,68.279 C35.1142,72.014 38.1422,75.041 41.8772,75.041 C45.6122,75.041 48.6402,72.014 48.6402,68.279 C48.6402,64.544 45.6122,61.516 41.8772,61.516 M41.8772,62.136 C45.2642,62.136 48.0202,64.892 48.0202,68.279 C48.0202,71.666 45.2642,74.421 41.8772,74.421 C38.4902,74.421 35.7342,71.666 35.7342,68.279 C35.7342,64.892 38.4902,62.136 41.8772,62.136" id="Fill-79" fill="#FFDC00" mask="url(#mask-2)"></path>
                    <path d="M46.4073,64.9925 C45.3793,63.5725 43.7523,62.7375 42.0463,62.6845" id="Fill-80" fill="#450000" mask="url(#mask-2)"></path>
                    <path d="M46.4076,65.147 C46.4386,65.147 46.4716,65.137 46.4986,65.117 C46.5676,65.067 46.5836,64.971 46.5326,64.901 C45.4966,63.471 43.8216,62.584 42.0516,62.529 C41.9586,62.541 41.8936,62.594 41.8916,62.679 C41.8886,62.766 41.9566,62.837 42.0416,62.839 C43.7166,62.891 45.3016,63.729 46.2826,65.083 C46.3126,65.124 46.3596,65.147 46.4076,65.147" id="Fill-81" fill="#FFDC00" mask="url(#mask-2)"></path>
                </g>
            </g>
        </g>
    </g>
</svg>
