<?xml version="1.0" encoding="UTF-8"?>
<svg width="92px" height="92px" viewBox="0 0 92 92" version="1.1" xmlns="http://www.w3.org/2000/svg" xmlns:xlink="http://www.w3.org/1999/xlink">
    <!-- Generator: Sketch 63.1 (92452) - https://sketch.com -->
    <title>Direct Deposit Copy 2</title>
    <desc>Created with Sketch.</desc>
    <g id="Direct-Deposit-Copy-2" stroke="none" stroke-width="1" fill="none" fill-rule="evenodd">
        <g id="Group-27" transform="translate(10.500000, 5.000000)">
            <g id="Page-1-Copy-3" transform="translate(35.500000, 41.000000) scale(-1, 1) translate(-35.500000, -41.000000) ">
                <path d="M57.9579053,43.3771158 C57.8031755,43.3771158 57.6462604,43.3355279 57.5042063,43.2479279 C57.0920308,42.9939764 56.961341,42.4493521 57.2122304,42.0321461 L59.4278376,38.3489642 C59.678727,37.9313158 60.2159101,37.7985885 60.6289598,38.0534248 C61.0415723,38.3073764 61.1722621,38.8515582 60.9209356,39.2692067 L58.7053285,42.9523885 C58.5409828,43.2258067 58.2529407,43.3771158 57.9579053,43.3771158 L57.9579053,43.3771158 Z" id="Fill-1" fill="#88D5F9"></path>
                <path d="M60.954373,42.6158364 C60.8088221,42.6158364 60.6610859,42.5791152 60.525151,42.5012485 L56.7478227,40.3404485 C56.3277796,40.0997697 56.1796063,39.5604545 56.4169459,39.1348424 C56.6551597,38.7096727 57.1870978,38.5596909 57.6084521,38.7999273 L61.3853433,40.9607273 C61.8053864,41.2014061 61.9535598,41.7407212 61.7162201,42.1663333 C61.5553712,42.4543515 61.2590244,42.6158364 60.954373,42.6158364" id="Fill-3" fill="#88D5F9"></path>
                <path d="M57.6958701,9.89444909 L18.6672661,9.89444909 C14.3925298,9.89444909 10.9272835,13.4019885 10.9272835,17.7288976 L10.9272835,61.9169036 L45.8708482,61.9169036 C50.2290685,61.9169036 53.7620637,58.3403461 53.7620637,53.9289339 L53.7620637,14.1226976 C53.7620637,14.1226976 53.7620637,9.64801879 57.6958701,9.89444909" id="Fill-5" fill="#FFFFFF"></path>
                <g id="Group-21" transform="translate(19.000000, 18.000000)">
                    <rect id="Rectangle" fill="#ECF6FF" transform="translate(13.500000, 6.500000) scale(-1, 1) translate(-13.500000, -6.500000) " x="0" y="0" width="27" height="13" rx="1"></rect>
                    <text id="TAX" transform="translate(13.000000, 7.000000) scale(-1, 1) translate(-13.000000, -7.000000) " font-family="Nunito-ExtraBold, Nunito" font-size="9" font-weight="600" letter-spacing="0.654545455" fill="#0089FF">
                        <tspan x="3" y="10">TAX</tspan>
                    </text>
                </g>
                <g id="Group-2" transform="translate(16.374872, 36.000000)" fill="#97D0FF">
                    <path d="M30.6558969,1.94117647 L12.8792354,1.94117647 C12.3432508,1.94117647 11.9100046,1.50732353 11.9100046,0.970588235 C11.9100046,0.433852941 12.3432508,2.84217094e-14 12.8792354,2.84217094e-14 L30.6558969,2.84217094e-14 C31.1918815,2.84217094e-14 31.6251277,0.433852941 31.6251277,0.970588235 C31.6251277,1.50732353 31.1918815,1.94117647 30.6558969,1.94117647" id="Fill-6"></path>
                    <path d="M30.6558969,7.53817059 L12.8792354,7.53817059 C12.3432508,7.53817059 11.9100046,7.10431765 11.9100046,6.56758235 C11.9100046,6.03084706 12.3432508,5.59699412 12.8792354,5.59699412 L30.6558969,5.59699412 C31.1918815,5.59699412 31.6251277,6.03084706 31.6251277,6.56758235 C31.6251277,7.10431765 31.1918815,7.53817059 30.6558969,7.53817059" id="Fill-7"></path>
                    <path d="M26.8698877,13.1361353 L12.8790415,13.1361353 C12.3440262,13.1361353 11.9098108,12.7022824 11.9098108,12.1655471 C11.9098108,11.6288118 12.3440262,11.1949588 12.8790415,11.1949588 L26.8698877,11.1949588 C27.4058723,11.1949588 27.8391185,11.6288118 27.8391185,12.1655471 C27.8391185,12.7022824 27.4058723,13.1361353 26.8698877,13.1361353" id="Fill-8"></path>
                    <path d="M8.67316154,1.94117647 L0.969715385,1.94117647 C0.433730769,1.94117647 0.000484615385,1.50732353 0.000484615385,0.970588235 C0.000484615385,0.433852941 0.433730769,2.84217094e-14 0.969715385,2.84217094e-14 L8.67316154,2.84217094e-14 C9.20914615,2.84217094e-14 9.64239231,0.433852941 9.64239231,0.970588235 C9.64239231,1.50732353 9.20914615,1.94117647 8.67316154,1.94117647" id="Fill-9"></path>
                    <path d="M7.92443077,7.53817059 L0.969230769,7.53817059 C0.433246154,7.53817059 -6.83897383e-14,7.10431765 -6.83897383e-14,6.56758235 C-6.83897383e-14,6.03084706 0.433246154,5.59699412 0.969230769,5.59699412 L7.92443077,5.59699412 C8.46041538,5.59699412 8.89366154,6.03084706 8.89366154,6.56758235 C8.89366154,7.10431765 8.46041538,7.53817059 7.92443077,7.53817059" id="Fill-11"></path>
                </g>
                <path d="M10.9272398,46.4339133 C10.4446929,46.4339133 10.0530607,46.0375012 10.0530607,45.5490648 L10.0530607,17.7289861 C10.0530607,12.9211618 13.9173697,9.00968909 18.6672224,9.00968909 L57.0642319,9.00968909 C57.2814654,8.99685879 57.5083149,8.99641636 57.7487142,9.01145879 C58.2203339,9.04021636 58.5839924,9.44370727 58.5695684,9.92152545 C58.5551445,10.3993436 58.1683202,10.7793861 57.6958263,10.7793861 L57.1350404,10.7793861 C54.7297364,10.9643194 54.6383846,13.7936224 54.6361992,14.125883 L54.6361992,29.7337255 C54.6361992,30.2221618 54.2445669,30.6185739 53.76202,30.6185739 C53.2794731,30.6185739 52.8878408,30.2221618 52.8878408,29.7337255 L52.8878408,14.1227861 C52.8878408,13.2038709 53.1409157,11.8602285 53.8809084,10.7793861 L18.6672224,10.7793861 C14.8815894,10.7793861 11.801419,13.8971497 11.801419,17.7289861 L11.801419,45.5490648 C11.801419,46.0375012 11.4097867,46.4339133 10.9272398,46.4339133 M45.8708045,62.8013982 L10.9272398,62.8013982 C10.4446929,62.8013982 10.0530607,62.4054285 10.0530607,61.9165497 L10.0530607,49.9733073 C10.0530607,49.4848709 10.4446929,49.0884588 10.9272398,49.0884588 C11.4097867,49.0884588 11.801419,49.4848709 11.801419,49.9733073 L11.801419,61.0317012 L45.8708045,61.0317012 C49.7403587,61.0317012 52.8878408,57.8453618 52.8878408,53.9290224 L52.8878408,34.1579679 C52.8878408,33.6690891 53.2794731,33.2731194 53.76202,33.2731194 C54.2445669,33.2731194 54.6361992,33.6690891 54.6361992,34.1579679 L54.6361992,53.9290224 C54.6361992,58.8213497 50.7041412,62.8013982 45.8708045,62.8013982" id="Fill-7" fill="#0089FF"></path>
                <g id="Group-18" transform="translate(3.193551, 0.000000)">
                    <path d="M25.9660103,4.53120154 C25.7829047,4.53120154 25.5981345,4.47159043 25.4441594,4.34949043 L22.285588,1.83472376 C21.9276998,1.54982376 21.8715196,1.03223487 22.1599109,0.678679315 C22.4483022,0.325534871 22.9718178,0.26962376 23.3301221,0.554112649 L26.4886935,3.0684682 C26.8465817,3.35377932 26.9027619,3.8713682 26.6147867,4.22492376 C26.4499917,4.4263682 26.2090414,4.53120154 25.9660103,4.53120154" id="Fill-15" fill="#6EE204"></path>
                    <path d="M22.9873636,4.90338043 C22.8129971,4.90338043 22.6373822,4.84952487 22.4871524,4.73811376 C22.1201089,4.46472487 22.0468667,3.94919154 22.3231896,3.58618043 L24.8092642,0.327302649 C25.0860033,-0.0352973514 25.6070219,-0.107652907 25.9753139,0.165735982 C26.3423573,0.439124871 26.4151834,0.954658204 26.1388605,1.3172582 L23.6532021,4.57613598 C23.4892393,4.79073598 23.2395499,4.90338043 22.9873636,4.90338043" id="Fill-16" fill="#6EE204"></path>
                    <path d="M1.13691925,24.0369026 L2.49439752,24.811436 L3.27800621,23.4703915 L1.9209441,22.6962693 L1.13691925,24.0369026 Z M2.79901863,25.9345915 L0,24.337836 L1.61590683,21.5731138 L4.41492547,23.1694582 L2.79901863,25.9345915 Z" id="Fill-17" fill="#88D5F9"></path>
                    <path d="M64.5679832,18.0954838 C63.7931137,18.0954838 63.1622317,18.6887171 63.1622317,19.4184393 C63.1622317,20.1477504 63.7931137,20.741806 64.5679832,20.741806 C65.3432689,20.741806 65.9741509,20.1477504 65.9741509,19.4184393 C65.9741509,18.6887171 65.3432689,18.0954838 64.5679832,18.0954838 M64.5679832,21.5640282 C63.3336851,21.5640282 62.3299335,20.6016171 62.3299335,19.4184393 C62.3299335,18.2356726 63.3336851,17.2732615 64.5679832,17.2732615 C65.8022814,17.2732615 66.8064491,18.2356726 66.8064491,19.4184393 C66.8064491,20.6016171 65.8022814,21.5640282 64.5679832,21.5640282" id="Fill-18" fill="#FFC888"></path>
                </g>
                <path d="M53.7620637,13.8762673 C53.7620637,11.6769764 55.5230977,9.89444909 57.6958701,9.89444909 C59.8686424,9.89444909 61.6296764,11.6769764 61.6296764,13.8762673 L61.6296764,22.1350006 L53.7620637,22.1350006 L53.7620637,13.8762673 Z" id="Fill-9" fill="#CBE8FF"></path>
                <path d="M54.6361992,21.2498424 L60.7554535,21.2498424 L60.7554535,13.8764 C60.7554535,12.1690848 59.3825551,10.7794303 57.6958263,10.7794303 C56.0090976,10.7794303 54.6361992,12.1690848 54.6361992,13.8764 L54.6361992,21.2498424 Z M61.6296327,23.0195394 L53.76202,23.0195394 C53.2794731,23.0195394 52.8878408,22.6231273 52.8878408,22.1346909 L52.8878408,13.8764 C52.8878408,11.193097 55.044878,9.00973333 57.6958263,9.00973333 C60.3467747,9.00973333 62.5038119,11.193097 62.5038119,13.8764 L62.5038119,22.1346909 C62.5038119,22.6231273 62.1121796,23.0195394 61.6296327,23.0195394 L61.6296327,23.0195394 Z" id="Fill-11" fill="#0089FF"></path>
                <path d="M45.894451,61.9166824 C41.5493434,61.9166824 38.0268383,58.3511855 38.0268383,53.9530461 L0.874222896,53.9530461 C0.874222896,58.3511855 4.39672793,61.9166824 8.74183558,61.9166824 L45.894451,61.9166824 Z" id="Fill-13" fill="#CBE8FF"></path>
                <path d="M45.8944073,62.8014424 L38.6513957,62.8014424 C38.1684117,62.8014424 37.7772165,62.4050303 37.7772165,61.9165939 C37.7772165,61.4281576 38.1684117,61.0317455 38.6513957,61.0317455 L40.6550144,61.0317455 C38.7488666,59.5832485 37.4450284,57.3653758 37.1963244,54.8378061 L1.80255748,54.8378061 C2.234402,58.3249939 5.18126004,61.0317455 8.74179187,61.0317455 L34.2804997,61.0317455 C34.7630466,61.0317455 35.1546789,61.4281576 35.1546789,61.9165939 C35.1546789,62.4050303 34.7630466,62.8014424 34.2804997,62.8014424 L8.74179187,62.8014424 C3.92156783,62.8014424 0,58.8320121 0,53.9529576 C0,53.4645212 0.391632276,53.0681091 0.874179187,53.0681091 L38.0267946,53.0681091 C38.5093415,53.0681091 38.9009738,53.4645212 38.9009738,53.9529576 C38.9009738,57.8560242 42.0384029,61.0317455 45.8944073,61.0317455 C46.3769542,61.0317455 46.7685865,61.4281576 46.7685865,61.9165939 C46.7685865,62.4050303 46.3769542,62.8014424 45.8944073,62.8014424" id="Fill-15" fill="#0089FF"></path>
                <path d="M54.8337027,74.7674273 C54.8337027,76.4362515 44.3147045,77.7887424 31.3392629,77.7887424 C18.3638212,77.7887424 7.84482303,76.4362515 7.84482303,74.7674273 C7.84482303,73.098603 18.1583891,69.0915667 31.1338308,69.0915667 C44.1097095,69.0915667 54.8337027,73.098603 54.8337027,74.7674273" id="Fill-25" fill="#EBF6FF"></path>
                <path d="M67.8146435,71.3383333 C67.8146435,70.5990424 63.1552685,70 57.4071032,70 C51.6593751,70 47,70.5990424 47,71.3383333 C47,72.0776242 51.5684604,73.8526303 57.3161886,73.8526303 C63.0643538,73.8526303 67.8146435,72.0776242 67.8146435,71.3383333" id="Fill-27" fill="#EBF6FF"></path>
                <path d="M50.7826425,46.7795352 C49.9683446,46.7795352 49.3057168,47.4183958 49.3057168,48.2036988 C49.3057168,48.9885594 49.9683446,49.62742 50.7826425,49.62742 C51.5965033,49.62742 52.2591311,48.9885594 52.2591311,48.2036988 C52.2591311,47.4183958 51.5965033,46.7795352 50.7826425,46.7795352 M50.7826425,50.5122685 C49.4862348,50.5122685 48.4315376,49.4765533 48.4315376,48.2036988 C48.4315376,46.9304018 49.4862348,45.8946867 50.7826425,45.8946867 C52.0790502,45.8946867 53.1333103,46.9304018 53.1333103,48.2036988 C53.1333103,49.4765533 52.0790502,50.5122685 50.7826425,50.5122685" id="Fill-53" fill="#6EE204"></path>
            </g>
            <g id="Group-16" transform="translate(13.500000, 70.900000) scale(-1, 1) translate(-13.500000, -70.900000) translate(6.000000, 67.400000)">
                <polygon id="Fill-55" fill="#FFE876" points="1.306 1.995 13.774 1.995 13.774 0.425 1.306 0.425"></polygon>
                <path d="M1.529,1.771 L13.55,1.771 L13.55,0.648 L1.529,0.648 L1.529,1.771 Z M13.774,2.218 L1.306,2.218 C1.182,2.218 1.082,2.118 1.082,1.995 L1.082,0.425 C1.082,0.301 1.182,0.201 1.306,0.201 L13.774,0.201 C13.898,0.201 13.998,0.301 13.998,0.425 L13.998,1.995 C13.998,2.118 13.898,2.218 13.774,2.218 L13.774,2.218 Z" id="Fill-56" fill="#FFDC00"></path>
                <polygon id="Fill-57" fill="#FFE876" points="0.904 5.135 13.372 5.135 13.372 3.565 0.904 3.565"></polygon>
                <path d="M1.127,4.911 L13.148,4.911 L13.148,3.788 L1.127,3.788 L1.127,4.911 Z M13.372,5.359 L0.903,5.359 C0.779,5.359 0.679,5.259 0.679,5.135 L0.679,3.565 C0.679,3.441 0.779,3.341 0.903,3.341 L13.372,3.341 C13.496,3.341 13.596,3.441 13.596,3.565 L13.596,5.135 C13.596,5.259 13.496,5.359 13.372,5.359 L13.372,5.359 Z" id="Fill-58" fill="#FFDC00"></path>
                <polygon id="Fill-59" fill="#FFE876" points="1.452 6.705 13.92 6.705 13.92 5.135 1.452 5.135"></polygon>
                <path d="M1.676,6.481 L13.696,6.481 L13.696,5.358 L1.676,5.358 L1.676,6.481 Z M13.919,6.929 L1.452,6.929 C1.328,6.929 1.228,6.829 1.228,6.705 L1.228,5.135 C1.228,5.011 1.328,4.911 1.452,4.911 L13.919,4.911 C14.043,4.911 14.143,5.011 14.143,5.135 L14.143,6.705 C14.143,6.829 14.043,6.929 13.919,6.929 L13.919,6.929 Z" id="Fill-60" fill="#FFDC00"></path>
                <polygon id="Fill-61" fill="#FFF9D1" points="9.948 1.765 11.444 1.765 11.444 0.654 9.948 0.654"></polygon>
                <polygon id="Fill-62" fill="#FFF9D1" points="11.63 1.765 11.784 1.765 11.784 0.654 11.63 0.654"></polygon>
                <polygon id="Fill-63" fill="#FFE876" points="1.203 3.565 13.671 3.565 13.671 1.995 1.203 1.995"></polygon>
                <path d="M1.426,3.341 L13.447,3.341 L13.447,2.218 L1.426,2.218 L1.426,3.341 Z M13.671,3.788 L1.202,3.788 C1.078,3.788 0.978,3.688 0.978,3.565 L0.978,1.995 C0.978,1.871 1.078,1.771 1.202,1.771 L13.671,1.771 C13.794,1.771 13.894,1.871 13.894,1.995 L13.894,3.565 C13.894,3.688 13.794,3.788 13.671,3.788 L13.671,3.788 Z" id="Fill-64" fill="#FFDC00"></path>
                <polygon id="Fill-65" fill="#FFF9D1" points="9.686 3.361 11.182 3.361 11.182 2.25 9.686 2.25"></polygon>
                <polygon id="Fill-66" fill="#FFF9D1" points="11.367 3.361 11.521 3.361 11.521 2.25 11.367 2.25"></polygon>
                <polygon id="Fill-67" fill="#FFF9D1" points="9.948 4.905 11.444 4.905 11.444 3.794 9.948 3.794"></polygon>
                <polygon id="Fill-68" fill="#FFF9D1" points="11.629 4.905 11.783 4.905 11.783 3.794 11.629 3.794"></polygon>
                <polygon id="Fill-69" fill="#FFF9D1" points="10.45 6.475 11.946 6.475 11.946 5.364 10.45 5.364"></polygon>
                <polygon id="Fill-70" fill="#FFF9D1" points="12.131 6.475 12.285 6.475 12.285 5.364 12.131 5.364"></polygon>
            </g>
            <g id="Group-19" transform="translate(15.000000, 62.000000)">
                <path d="M6.454,13.5598 C2.895,13.5598 7.63833441e-14,10.6648 7.63833441e-14,7.1068 C7.63833441e-14,3.5498 2.895,0.6548 6.454,0.6548 C10.012,0.6548 12.907,3.5498 12.907,7.1068 C12.907,10.6648 10.012,13.5598 6.454,13.5598" id="Fill-71" fill="#D1AE19"></path>
                <path d="M7.4869,13.2148 C3.9279,13.2148 1.0329,10.3198 1.0329,6.7618 C1.0329,3.2048 3.9279,0.3098 7.4869,0.3098 C11.0449,0.3098 13.9399,3.2048 13.9399,6.7618 C13.9399,10.3198 11.0449,13.2148 7.4869,13.2148" id="Fill-78" fill="#FFF9D1"></path>
                <path d="M7.4862,-1.82076576e-13 C3.7512,-1.82076576e-13 0.7232,3.028 0.7232,6.763 C0.7232,10.498 3.7512,13.525 7.4862,13.525 C11.2212,13.525 14.2492,10.498 14.2492,6.763 C14.2492,3.028 11.2212,-1.82076576e-13 7.4862,-1.82076576e-13 M7.4862,0.62 C10.8732,0.62 13.6292,3.376 13.6292,6.763 C13.6292,10.15 10.8732,12.905 7.4862,12.905 C4.0992,12.905 1.3432,10.15 1.3432,6.763 C1.3432,3.376 4.0992,0.62 7.4862,0.62" id="Fill-79" fill="#FFDC00"></path>
                <path d="M2.9561,3.4765 C3.9841,2.0565 5.6111,1.2215 7.3171,1.1685" id="Fill-80" fill="#FFF9D1"></path>
                <path d="M2.9559,3.6309 C2.9249,3.6309 2.8919,3.6209 2.8649,3.6009 C2.7959,3.5509 2.7799,3.4549 2.8309,3.3849 C3.8669,1.9549 5.5419,1.0679 7.3119,1.0129 C7.4049,1.0249 7.4699,1.0779 7.4719,1.1629 C7.4749,1.2499 7.4069,1.3209 7.3219,1.3229 C5.6469,1.3749 4.0619,2.2129 3.0809,3.5669 C3.0509,3.6079 3.0039,3.6309 2.9559,3.6309" id="Fill-81" fill="#FFDC00"></path>
                <line x1="6.4533" y1="10.402" x2="9.0763" y2="10.402" id="Fill-82" fill="#FFF9D1"></line>
                <line x1="6.4533" y1="11.3377" x2="8.1313" y2="11.3377" id="Fill-84" fill="#FFF9D1"></line>
                <path d="M5.8934,6.7627 C5.8934,7.1997 6.0464,7.5747 6.3534,7.8867 C6.6594,8.1997 7.0394,8.3557 7.4924,8.3557 C7.9454,8.3557 8.3254,8.1997 8.6344,7.8897 C8.9424,7.5797 9.0964,7.2037 9.0964,6.7627 C9.0964,6.3177 8.9404,5.9367 8.6284,5.6207 C8.3154,5.3047 7.9374,5.1467 7.4924,5.1467 C7.0394,5.1467 6.6594,5.3067 6.3534,5.6267 C6.0464,5.9467 5.8934,6.3257 5.8934,6.7627 M5.1384,6.7627 C5.1384,6.2867 5.2824,5.8397 5.5714,5.4217 L4.7804,4.6017 L5.3314,4.0627 L6.1214,4.8417 C6.5274,4.5567 6.9844,4.4147 7.4924,4.4147 C7.9884,4.4147 8.4354,4.5567 8.8334,4.8417 L9.6354,4.0627 L10.1914,4.6017 L9.4074,5.4097 C9.6954,5.8507 9.8404,6.3017 9.8404,6.7627 C9.8404,7.2737 9.6954,7.7307 9.4074,8.1327 L10.1744,8.9237 L9.6354,9.4627 L8.8334,8.6837 C8.4354,8.9607 7.9884,9.0987 7.4924,9.0987 C6.9694,9.0987 6.5124,8.9567 6.1214,8.6717 L5.3314,9.4507 L4.7924,8.9117 L5.5714,8.1157 C5.2824,7.6977 5.1384,7.2467 5.1384,6.7627" id="Fill-86" fill="#FFDC00"></path>
            </g>
        </g>
    </g>
</svg>