<?xml version="1.0" encoding="UTF-8"?>
<svg width="28px" height="32px" viewBox="0 0 28 32" version="1.1" xmlns="http://www.w3.org/2000/svg" xmlns:xlink="http://www.w3.org/1999/xlink">
    <!-- Generator: Sketch 61.2 (89653) - https://sketch.com -->
    <title>Group</title>
    <desc>Created with Sketch.</desc>
    <g id="Page-1" stroke="none" stroke-width="1" fill="none" fill-rule="evenodd">
        <g id="Group" fill="#5B5E65" fill-rule="nonzero">
            <path d="M12,11.75 L12,25.25 C12,25.6641875 11.6641875,26 11.25,26 L9.75,26 C9.3358125,26 9,25.6641875 9,25.25 L9,11.75 C9,11.3358125 9.3358125,11 9.75,11 L11.25,11 C11.6641875,11 12,11.3358125 12,11.75 Z" id="Path"></path>
            <path d="M18.25,11 L16.75,11 C16.3358125,11 16,11.3358125 16,11.75 L16,25.25 C16,25.6641875 16.3358125,26 16.75,26 L18.25,26 C18.6641875,26 19,25.6641875 19,25.25 L19,11.75 C19,11.3358125 18.6641875,11 18.25,11 Z" id="Path"></path>
            <path d="M17.15075,0 C18.2045436,0 19.1810732,0.552882168 19.72325,1.4565 L21.8493125,5 L26.5,5 C27.3284375,5 28,5.6715625 28,6.5 L28,7.25 C28,7.6641875 27.6641875,8 27.25,8 L26,8 L26,29 C26,30.656875 24.656875,32 23,32 L5,32 C3.343125,32 2,30.656875 2,29 L2,8 L0.75,8 C0.3358125,8 0,7.6641875 0,7.25 L0,6.5 C0,5.6715625 0.6715625,5 1.5,5 L6.1506875,5 L8.2768125,1.4565 C8.81898928,0.552882168 9.79551895,0 10.8493125,0 L17.15075,0 Z M23,8 L5,8 L5,28.625 C5,28.8321068 5.16789322,29 5.375,29 L22.625,29 C22.8321068,29 23,28.8321068 23,28.625 L23,8 Z M16.9384375,3 L11.0616875,3 C10.9299633,3 10.8078971,3.06911027 10.740125,3.1820625 L9.6493125,5 L18.35075,5 L17.26,3.1820625 C17.1922279,3.06911027 17.0701617,3 16.9384375,3 Z" id="Combined-Shape"></path>
        </g>
    </g>
</svg>