<?xml version="1.0" encoding="UTF-8"?>
<svg width="92px" height="92px" viewBox="0 0 92 92" version="1.1" xmlns="http://www.w3.org/2000/svg" xmlns:xlink="http://www.w3.org/1999/xlink">
    <title>Artboard</title>
    <defs>
        <polygon id="path-1" points="0 69.4379278 63.1879354 69.4379278 63.1879354 0.000511027663 0 0.000511027663"></polygon>
        <path d="M38,45 C32.4771371,45 28,49.4771371 28,55 C28,60.5228629 32.4771371,65 38,65 C43.5228629,65 48,60.5228629 48,55 C48,49.4771371 43.5228629,45 38,45 Z M45.2458871,51.4516129 L41.85375,51.4516129 C41.5580645,49.9432661 41.0751613,48.5353629 40.4288306,47.3064113 C42.5766935,47.9817339 44.3024597,49.5292339 45.2458871,51.4516129 Z M45.903871,56.6129032 L42.125121,56.6129032 C42.2134677,55.5683468 42.2194355,54.495121 42.1244355,53.3870968 L45.903871,53.3870968 C46.1179435,54.4472984 46.1182661,55.5511694 45.903871,56.6129032 L45.903871,56.6129032 Z M35.82,56.6129032 C35.7167339,55.5444355 35.7156452,54.4700403 35.8183468,53.3870968 L40.1816532,53.3870968 C40.2842742,54.4690323 40.2833468,55.5433468 40.18,56.6129032 L35.82,56.6129032 L35.82,56.6129032 Z M39.8741935,58.5483871 C39.4971371,60.2440726 38.8541129,61.7706452 38,62.9533468 C37.1458468,61.7706048 36.5028629,60.2440726 36.1258065,58.5483871 L39.8741935,58.5483871 Z M30.096129,53.3870968 L33.8755645,53.3870968 C33.7868145,54.4225403 33.7803629,55.4951613 33.874879,56.6129032 L30.096129,56.6129032 C29.8820565,55.5527419 29.8817339,54.4488306 30.096129,53.3870968 Z M36.1207258,51.4516129 C36.4947177,49.7591129 37.1357258,48.2397177 38,47.0452823 C38.8642742,48.2397177 39.5053226,49.7591532 39.8792742,51.4516129 L36.1207258,51.4516129 Z M35.571129,47.3064113 C34.9248387,48.5353629 34.4418952,49.9432661 34.14625,51.4516129 L30.7541129,51.4516129 C31.6967742,49.5308065 33.4216532,47.9822581 35.571129,47.3064113 Z M30.7541129,58.5483871 L34.1429435,58.5483871 C34.4373387,60.0593548 34.9190323,61.4643952 35.5666532,62.6921774 C33.4035484,62.0106452 31.6887097,60.4527016 30.7541129,58.5483871 Z M40.4333468,62.6921774 C41.0809677,61.4643952 41.5626613,60.0593548 41.8570565,58.5483871 L45.2458871,58.5483871 C44.3097177,60.4559274 42.5930242,62.0117339 40.4333468,62.6921774 Z" id="path-3"></path>
    </defs>
    <g id="Artboard" stroke="none" stroke-width="1" fill="none" fill-rule="evenodd">
        <g id="YBiDaQ4ksI9L56XqZp1GeN5jC8Puy8NWZ60rA0t28fc-Copy-10" transform="translate(16.000000, 10.000000)">
            <path d="M46.6508061,63.6774224 C43.1579416,64.3852233 39.0209333,63.7580835 35.8070673,63.4092244 C28.2359312,62.5884981 20.6647949,61.7677718 13.0936587,60.9470455 C9.48038438,60.5558393 7.45789054,56.7456125 7.54305848,52.695419 C7.57927933,50.9622144 8.48088477,49.5042657 8.40648519,47.7942511 C8.29586475,45.2937582 6.61306373,44.2098753 5.20240854,42.7579761 C4.51225454,42.0471505 3.91901578,41.0479617 4.00907843,39.9701281 C4.18039326,37.9092381 6.61110585,36.9594541 6.84605189,34.9076383 C7.08882946,32.7882689 4.88229456,31.3998903 4.43296025,29.3289176 C3.99733114,27.3244903 5.51469099,24.8562618 6.09911927,23.0484457 C6.66592659,21.2910429 7.27776524,19.6697555 8.39669576,18.2924679 C10.7853139,15.3503556 14.0324639,14.8018604 17.3060454,14.5891169 C20.443554,14.3854477 23.5800837,14.1807703 26.7166134,13.977101 C35.1129975,13.4306224 45.7697585,9.11626386 53.2537688,15.2767525 C54.7446973,16.5038088 55.9703324,18.2511291 56.2405204,20.2686639 C56.4970031,22.1924302 56.8504011,24.0274694 55.7862914,25.7546243 C55.1636843,26.7659124 54.3413732,27.6209196 53.7657554,28.6644722 C52.3874053,31.160932 52.6213724,34.3712423 53.5004622,37.1227927 C54.3805309,39.8753514 55.8362174,42.3637452 56.8631273,45.0547998 C57.8900374,47.7458545 58.4695709,50.8351732 57.5141237,53.557484 C56.5645502,56.2676957 54.4236044,57.375777 52.7192666,59.3650804 C50.9317188,61.4511772 49.396738,63.1208611 46.6508061,63.6774224 Z" id="Fill-1" fill="#EFEFEF" fill-rule="nonzero"></path>
            <g id="Fill-3-Clipped" transform="translate(2.000000, 0.000000)">
                <mask id="mask-2" fill="white">
                    <use xlink:href="#path-1"></use>
                </mask>
                <g id="path-1"></g>
                <polygon id="Fill-3" fill="#FFFFFF" fill-rule="nonzero" mask="url(#mask-2)" points="8.35821863 68.4158725 50.7956674 68.4158725 50.7956674 10.0585575 8.35821863 10.0585575"></polygon>
            </g>
            <g id="Fill-5-Clipped" transform="translate(8.000000, 8.000000)" fill="#6375CC" fill-rule="nonzero">
                <path d="M43.5994887,30.6628245 C43.0594712,30.6628245 42.6229652,30.2027472 42.6229652,29.6335688 L42.6229652,2.66501057 L11.5714717,2.66501057 C11.0314542,2.66501057 10.5949482,2.2049332 10.5949482,1.63575481 C10.5949482,1.0665764 11.0314542,0.606499096 11.5714717,0.606499096 L43.5994887,0.606499096 C44.1395062,0.606499096 44.5760121,1.0665764 44.5760121,1.63575481 L44.5760121,29.6335688 C44.5760121,30.2027472 44.1395062,30.6628245 43.5994887,30.6628245 M4.43699119,61.4334533 L1.60409657,61.4334533 C1.06407909,61.4334533 0.62757309,60.9733761 0.62757309,60.4041977 L0.62757309,1.63575481 C0.62757309,1.0665764 1.06407909,0.606499096 1.60409657,0.606499096 L6.68885427,0.606499096 C7.22887184,0.606499096 7.66537778,1.0665764 7.66537778,1.63575481 C7.66537778,2.2049332 7.22887184,2.66501057 6.68885427,2.66501057 L2.58062004,2.66501057 L2.58062004,59.3749419 L4.43699119,59.3749419 C4.97700866,59.3749419 5.4135147,59.8360485 5.4135147,60.4041977 C5.4135147,60.9733761 4.97700866,61.4334533 4.43699119,61.4334533 M43.5994887,61.4334533 L9.31960853,61.4334533 C8.78056755,61.4334533 8.34308512,60.9733761 8.34308512,60.4041977 C8.34308512,59.8360485 8.78056755,59.3749419 9.31960853,59.3749419 L42.6229652,59.3749419 L42.6229652,34.7798474 C42.6229652,34.210669 43.0594712,33.7505916 43.5994887,33.7505916 C44.1395062,33.7505916 44.5760121,34.210669 44.5760121,34.7798474 L44.5760121,60.4041977 C44.5760121,60.9733761 44.1395062,61.4334533 43.5994887,61.4334533" id="Fill-5"></path>
            </g>
            <g id="Fill-6-Clipped" transform="translate(27.000000, 39.000000)" fill="#B4D7FF" fill-rule="nonzero">
                <path d="M19.3805622,1.74924506 L1.32686182,1.74924506 C0.782524211,1.74924506 0.342526123,1.38810915 0.342526123,0.941334691 C0.342526123,0.494560235 0.782524211,0.13342432 1.32686182,0.13342432 L19.3805622,0.13342432 C19.9248999,0.13342432 20.3648979,0.494560235 20.3648979,0.941334691 C20.3648979,1.38810915 19.9248999,1.74924506 19.3805622,1.74924506" id="Fill-6"></path>
            </g>
            <g id="Fill-9-Clipped" transform="translate(15.000000, 39.000000)" fill="#B4D7FF" fill-rule="nonzero">
                <path d="M8.7452766,1.74924506 L0.983867965,1.74924506 C0.443850498,1.74924506 0.00734445784,1.38810915 0.00734445784,0.941334691 C0.00734445784,0.494560235 0.443850498,0.13342432 0.983867965,0.13342432 L8.7452766,0.13342432 C9.28529407,0.13342432 9.72180001,0.494560235 9.72180001,0.941334691 C9.72180001,1.38810915 9.28529407,1.74924506 8.7452766,1.74924506" id="Fill-9"></path>
            </g>
            <g id="Fill-10-Clipped" transform="translate(16.000000, 29.000000)" fill="#6375CC" fill-rule="nonzero">
                <path d="M7.62750304,1.84947624 L0.965979457,1.84947624 C0.435780489,1.84947624 0.00721092225,1.48834024 0.00721092225,1.04156578 C0.00721092225,0.594791327 0.435780489,0.233655412 0.965979457,0.233655412 L7.62750304,0.233655412 C8.15770201,0.233655412 8.58627157,0.594791327 8.58627157,1.04156578 C8.58627157,1.48834024 8.15770201,1.84947624 7.62750304,1.84947624" id="Fill-10"></path>
            </g>
            <g id="Fill-11-Clipped" transform="translate(16.000000, 44.000000)" fill="#B4D7FF" fill-rule="nonzero">
                <path d="M7.84562287,1.74147458 L0.965500088,1.74147458 C0.43530112,1.74147458 0.00673155321,1.38033858 0.00673155321,0.933564123 C0.00673155321,0.486789667 0.43530112,0.125653752 0.965500088,0.125653752 L7.84562287,0.125653752 C8.37582184,0.125653752 8.80439141,0.486789667 8.80439141,0.933564123 C8.80439141,1.38033858 8.37582184,1.74147458 7.84562287,1.74147458" id="Fill-11"></path>
            </g>
            <g id="Fill-12-Clipped" transform="translate(17.000000, 17.000000)" fill="#6375CC" fill-rule="nonzero">
                <path d="M4.75174977,2.6857161 C4.75174977,3.82184014 3.86116032,4.74285792 2.76257143,4.74285792 C1.66398253,4.74285792 0.773393084,3.82184014 0.773393084,2.6857161 C0.773393084,1.54959206 1.66398253,0.628574279 2.76257143,0.628574279 C3.86116032,0.628574279 4.75174977,1.54959206 4.75174977,2.6857161" id="Fill-12"></path>
            </g>
            <g id="Fill-13-Clipped" transform="translate(16.000000, 22.000000)" fill="#6375CC" fill-rule="nonzero">
                <path d="M8.35175674,4.76089042 C8.35175674,2.46541506 6.5847464,0.604191387 4.40546563,0.604191387 C2.22618476,0.604191387 0.45917441,2.46541506 0.45917441,4.76089042 L8.35175674,4.76089042 Z" id="Fill-13"></path>
            </g>
            <g id="Fill-17-Clipped" transform="translate(55.000000, 38.000000)" fill="#FF8D00" fill-rule="nonzero">
                <path d="M1.44412027,3.22113877 L3.35830157,4.36362506 L4.46392144,2.3831337 L2.54974014,1.24064741 L1.44412027,3.22113877 Z M3.6790896,5.60427247 L0.244461175,3.55288697 L2.22719443,0 L5.66358053,2.0513855 L3.6790896,5.60427247 Z" id="Fill-17"></path>
            </g>
            <g id="Fill-19-Clipped" transform="translate(0.000000, 29.000000)" fill="#7AC943" fill-rule="nonzero">
                <path d="M2.43369181,1.25435544 C1.63001299,1.25435544 0.976718781,1.91603405 0.976718781,2.72936901 C0.976718781,3.54270386 1.63001299,4.20438247 2.43369181,4.20438247 C3.23737063,4.20438247 3.89066483,3.54270386 3.89066483,2.72936901 C3.89066483,1.91603405 3.23737063,1.25435544 2.43369181,1.25435544 M2.43369181,5.24312448 C1.09194856,5.24312448 0.000195304695,4.11505075 0.000195304695,2.72936901 C0.000195304695,1.34368716 1.09194856,0.215613431 2.43369181,0.215613431 C3.77543506,0.215613431 4.86718831,1.34368716 4.86718831,2.72936901 C4.86718831,4.11505075 3.77543506,5.24312448 2.43369181,5.24312448" id="Fill-19"></path>
            </g>
            <g id="Fill-25-Clipped" transform="translate(2.000000, 0.000000)" fill="#FFFFFF" fill-rule="nonzero">
                <path d="M48.8680039,8.61573996 C48.6326193,8.61573996 48.4070423,8.52210292 48.2403116,8.34717657 C48.0735807,8.17225023 47.9862923,7.93661415 47.9862923,7.68965931 C47.9862923,7.44167549 48.0735807,7.20603941 48.2403116,7.03111306 C48.5737731,6.69155015 49.1524269,6.69155015 49.4858884,7.03111306 C49.6526193,7.20603941 49.7506961,7.44167549 49.7506961,7.68965931 C49.7506961,7.93661415 49.6526193,8.17225023 49.4858884,8.34717657 C49.3191577,8.52210292 49.1033884,8.61573996 48.8680039,8.61573996" id="Fill-25"></path>
            </g>
            <mask id="mask-4" fill="white">
                <use xlink:href="#path-3"></use>
            </mask>
            <use id="1---Main-Use/globe" fill="#D3EDC0" xlink:href="#path-3"></use>
        </g>
    </g>
</svg>