<?xml version="1.0" encoding="UTF-8"?>
<svg width="24px" height="24px" viewBox="0 0 24 24" version="1.1" xmlns="http://www.w3.org/2000/svg" xmlns:xlink="http://www.w3.org/1999/xlink">
    <!-- Generator: Sketch 55.1 (78136) - https://sketchapp.com -->
    <title>Info</title>
    <desc>Created with Sketch.</desc>
    <defs>
        <path d="M12,0.375 C5.58014063,0.375 0.375,5.58201562 0.375,12 C0.375,18.4217344 5.58014063,23.625 12,23.625 C18.4198594,23.625 23.625,18.4217344 23.625,12 C23.625,5.58201562 18.4198594,0.375 12,0.375 Z M12,21.375 C6.8188125,21.375 2.625,17.1829219 2.625,12 C2.625,6.82054687 6.819,2.625 12,2.625 C17.1792656,2.625 21.375,6.81895313 21.375,12 C21.375,17.1810937 17.1829219,21.375 12,21.375 Z M12,5.53125 C13.0873125,5.53125 13.96875,6.4126875 13.96875,7.5 C13.96875,8.5873125 13.0873125,9.46875 12,9.46875 C10.9126875,9.46875 10.03125,8.5873125 10.03125,7.5 C10.03125,6.4126875 10.9126875,5.53125 12,5.53125 Z M14.625,17.4375 C14.625,17.7481406 14.3731406,18 14.0625,18 L9.9375,18 C9.62685937,18 9.375,17.7481406 9.375,17.4375 L9.375,16.3125 C9.375,16.0018594 9.62685937,15.75 9.9375,15.75 L10.5,15.75 L10.5,12.75 L9.9375,12.75 C9.62685937,12.75 9.375,12.4981406 9.375,12.1875 L9.375,11.0625 C9.375,10.7518594 9.62685937,10.5 9.9375,10.5 L12.9375,10.5 C13.2481406,10.5 13.5,10.7518594 13.5,11.0625 L13.5,15.75 L14.0625,15.75 C14.3731406,15.75 14.625,16.0018594 14.625,16.3125 L14.625,17.4375 Z" id="path-1"></path>
    </defs>
    <g id="Page-1" stroke="none" stroke-width="1" fill="none" fill-rule="evenodd">
        <g id="Sprite_SVG" transform="translate(-530.000000, 0.000000)">
            <g id="1---Main-Use/info" transform="translate(530.000000, 0.000000)">
                <mask id="mask-2" fill="white">
                    <use xlink:href="#path-1"></use>
                </mask>
                <use fill="#2874BB" fill-rule="evenodd" xlink:href="#path-1"></use>
            </g>
        </g>
    </g>
</svg>