<svg xmlns="http://www.w3.org/2000/svg" xmlns:xlink="http://www.w3.org/1999/xlink" width="24" height="24" viewBox="0 0 24 24">
    <defs>
        <path id="a" d="M13.856 12l6.099-6.098a.563.563 0 0 0 0-.797l-1.06-1.06a.563.563 0 0 0-.797 0L12 10.144 5.902 4.045a.563.563 0 0 0-.797 0l-1.06 1.06a.563.563 0 0 0 0 .797L10.144 12l-6.099 6.098a.563.563 0 0 0 0 .797l1.06 1.06c.22.22.576.22.797 0L12 13.856l6.098 6.099c.22.22.577.22.797 0l1.06-1.06a.563.563 0 0 0 0-.797L13.856 12z"/>
    </defs>
    <g fill="none" fill-rule="evenodd">
        <mask id="b" fill="#fff">
            <use xlink:href="#a"/>
        </mask>
        <use fill="#5B5E65" fill-rule="nonzero" xlink:href="#a"/>
        <g fill="#5B5E65" mask="url(#b)">
            <path d="M0 0h24v24H0z"/>
        </g>
    </g>
</svg>
